<mxfile host="app.diagrams.net" modified="2020-11-12T22:18:18.886Z" agent="5.0 (Windows NT 10.0; WOW64) AppleWebKit/537.36 (KHTML, like Gecko) Chrome/86.0.4240.193 Safari/537.36" etag="VJpS47BY6aCTZ14_okgx" version="13.9.7" type="github">
  <diagram id="et9MhcIjCDevGPkqaGKn" name="Page-1">
    <mxGraphModel dx="868" dy="450" grid="1" gridSize="10" guides="1" tooltips="1" connect="1" arrows="1" fold="1" page="1" pageScale="1" pageWidth="827" pageHeight="1169" math="0" shadow="0">
      <root>
        <mxCell id="0" />
        <mxCell id="1" parent="0" />
        <mxCell id="blmH2qQqSrAOaY-caSB3-1" value="&lt;span style=&quot;color: rgba(0 , 0 , 0 , 0) ; font-family: monospace ; font-size: 0px&quot;&gt;%3CmxGraphModel%3E%3Croot%3E%3CmxCell%20id%3D%220%22%2F%3E%3CmxCell%20id%3D%221%22%20parent%3D%220%22%2F%3E%3CmxCell%20id%3D%222%22%20value%3D%22%22%20style%3D%22endArrow%3Dclassic%3Bhtml%3D1%3B%22%20edge%3D%221%22%20parent%3D%221%22%3E%3CmxGeometry%20width%3D%2250%22%20height%3D%2250%22%20relative%3D%221%22%20as%3D%22geometry%22%3E%3CmxPoint%20x%3D%22690%22%20y%3D%22240%22%20as%3D%22sourcePoint%22%2F%3E%3CmxPoint%20x%3D%22680%22%20y%3D%22250%22%20as%3D%22targetPoint%22%2F%3E%3C%2FmxGeometry%3E%3C%2FmxCell%3E%3C%2Froot%3E%3C%2FmxGraphModel%3E&lt;/span&gt;" style="text;html=1;strokeColor=none;fillColor=none;align=center;verticalAlign=middle;whiteSpace=wrap;rounded=0;" vertex="1" parent="1">
          <mxGeometry x="160" y="220" width="270" height="50" as="geometry" />
        </mxCell>
        <mxCell id="blmH2qQqSrAOaY-caSB3-3" value="&lt;p style=&quot;margin-top: 12.0pt ; margin-right: 0cm ; margin-bottom: 12.0pt ; margin-left: 36.0pt ; text-align: justify ; text-indent: -18.0pt ; background: white&quot;&gt;&lt;b&gt;&lt;span style=&quot;font-size: 16.0pt ; font-family: &amp;#34;calibri&amp;#34; , &amp;#34;sans-serif&amp;#34;&quot;&gt;The customers should be able to pay their bills through credit card or cash.&lt;/span&gt;&lt;/b&gt;&lt;/p&gt;" style="text;html=1;strokeColor=none;fillColor=none;align=center;verticalAlign=middle;whiteSpace=wrap;rounded=0;" vertex="1" parent="1">
          <mxGeometry x="120" y="30" width="570" height="100" as="geometry" />
        </mxCell>
        <mxCell id="blmH2qQqSrAOaY-caSB3-5" value="Actor" style="shape=umlActor;verticalLabelPosition=bottom;verticalAlign=top;html=1;outlineConnect=0;" vertex="1" parent="1">
          <mxGeometry x="80" y="200" width="50" height="100" as="geometry" />
        </mxCell>
        <mxCell id="blmH2qQqSrAOaY-caSB3-6" value="Customer" style="text;html=1;align=center;verticalAlign=middle;resizable=0;points=[];autosize=1;" vertex="1" parent="1">
          <mxGeometry x="70" y="320" width="70" height="20" as="geometry" />
        </mxCell>
        <mxCell id="blmH2qQqSrAOaY-caSB3-8" value="" style="rounded=0;whiteSpace=wrap;html=1;" vertex="1" parent="1">
          <mxGeometry x="140" y="140" width="499" height="250" as="geometry" />
        </mxCell>
        <mxCell id="blmH2qQqSrAOaY-caSB3-12" value="" style="endArrow=none;html=1;entryX=0;entryY=1;entryDx=0;entryDy=0;" edge="1" parent="1" target="blmH2qQqSrAOaY-caSB3-14">
          <mxGeometry width="50" height="50" relative="1" as="geometry">
            <mxPoint x="130" y="254" as="sourcePoint" />
            <mxPoint x="240" y="254" as="targetPoint" />
            <Array as="points">
              <mxPoint x="230" y="254" />
              <mxPoint x="350" y="190" />
            </Array>
          </mxGeometry>
        </mxCell>
        <mxCell id="blmH2qQqSrAOaY-caSB3-13" value="" style="ellipse;whiteSpace=wrap;html=1;" vertex="1" parent="1">
          <mxGeometry x="346" y="150" width="84" height="60" as="geometry" />
        </mxCell>
        <mxCell id="blmH2qQqSrAOaY-caSB3-14" value="U1: pay" style="text;html=1;strokeColor=none;fillColor=none;align=center;verticalAlign=middle;whiteSpace=wrap;rounded=0;" vertex="1" parent="1">
          <mxGeometry x="346" y="170" width="80" height="20" as="geometry" />
        </mxCell>
        <mxCell id="blmH2qQqSrAOaY-caSB3-15" value="" style="endArrow=none;dashed=1;html=1;dashPattern=1 3;strokeWidth=2;" edge="1" parent="1">
          <mxGeometry width="50" height="50" relative="1" as="geometry">
            <mxPoint x="320" y="260" as="sourcePoint" />
            <mxPoint x="370" y="210" as="targetPoint" />
          </mxGeometry>
        </mxCell>
        <mxCell id="blmH2qQqSrAOaY-caSB3-16" value="" style="endArrow=none;dashed=1;html=1;dashPattern=1 3;strokeWidth=2;entryX=0.75;entryY=1.033;entryDx=0;entryDy=0;entryPerimeter=0;exitX=0.4;exitY=-0.043;exitDx=0;exitDy=0;exitPerimeter=0;" edge="1" parent="1" source="blmH2qQqSrAOaY-caSB3-19" target="blmH2qQqSrAOaY-caSB3-13">
          <mxGeometry width="50" height="50" relative="1" as="geometry">
            <mxPoint x="450" y="240" as="sourcePoint" />
            <mxPoint x="380" y="220" as="targetPoint" />
            <Array as="points">
              <mxPoint x="460" y="260" />
            </Array>
          </mxGeometry>
        </mxCell>
        <mxCell id="blmH2qQqSrAOaY-caSB3-18" value="" style="ellipse;whiteSpace=wrap;html=1;aspect=fixed;" vertex="1" parent="1">
          <mxGeometry x="286" y="260" width="70" height="70" as="geometry" />
        </mxCell>
        <mxCell id="blmH2qQqSrAOaY-caSB3-19" value="" style="ellipse;whiteSpace=wrap;html=1;aspect=fixed;" vertex="1" parent="1">
          <mxGeometry x="430" y="260" width="70" height="70" as="geometry" />
        </mxCell>
        <mxCell id="blmH2qQqSrAOaY-caSB3-21" value="Pay by Credit cash" style="text;html=1;strokeColor=none;fillColor=none;align=center;verticalAlign=middle;whiteSpace=wrap;rounded=0;" vertex="1" parent="1">
          <mxGeometry x="430" y="280" width="70" height="20" as="geometry" />
        </mxCell>
        <mxCell id="blmH2qQqSrAOaY-caSB3-22" value="Pay by Credit Card" style="text;html=1;strokeColor=none;fillColor=none;align=center;verticalAlign=middle;whiteSpace=wrap;rounded=0;" vertex="1" parent="1">
          <mxGeometry x="286" y="285" width="70" height="20" as="geometry" />
        </mxCell>
        <mxCell id="blmH2qQqSrAOaY-caSB3-25" value="Extend" style="text;html=1;strokeColor=none;fillColor=none;align=center;verticalAlign=middle;whiteSpace=wrap;rounded=0;" vertex="1" parent="1">
          <mxGeometry x="400" y="240" width="40" height="20" as="geometry" />
        </mxCell>
        <mxCell id="blmH2qQqSrAOaY-caSB3-26" value="Extend" style="text;html=1;strokeColor=none;fillColor=none;align=center;verticalAlign=middle;whiteSpace=wrap;rounded=0;" vertex="1" parent="1">
          <mxGeometry x="275" y="240" width="40" height="20" as="geometry" />
        </mxCell>
        <mxCell id="blmH2qQqSrAOaY-caSB3-32" value="" style="endArrow=classic;html=1;" edge="1" parent="1">
          <mxGeometry width="50" height="50" relative="1" as="geometry">
            <mxPoint x="340" y="240" as="sourcePoint" />
            <mxPoint x="315" y="260" as="targetPoint" />
            <Array as="points">
              <mxPoint x="330" y="250" />
            </Array>
          </mxGeometry>
        </mxCell>
        <mxCell id="blmH2qQqSrAOaY-caSB3-34" value="" style="endArrow=classic;html=1;" edge="1" parent="1">
          <mxGeometry width="50" height="50" relative="1" as="geometry">
            <mxPoint x="450" y="250" as="sourcePoint" />
            <mxPoint x="460" y="260" as="targetPoint" />
            <Array as="points">
              <mxPoint x="450" y="250" />
            </Array>
          </mxGeometry>
        </mxCell>
      </root>
    </mxGraphModel>
  </diagram>
</mxfile>
